<mxfile host="app.diagrams.net" modified="2021-02-01T00:55:10.036Z" agent="5.0 (Windows NT 6.3; Win64; x64) AppleWebKit/537.36 (KHTML, like Gecko) Chrome/88.0.4324.104 Safari/537.36" etag="PDDmrAas2iF7Yfq2ZC1d" version="14.2.9" type="github">
  <diagram id="vV0Vqf7PJrJAOUQtHl3d" name="Page-1">
    <mxGraphModel dx="868" dy="450" grid="1" gridSize="10" guides="1" tooltips="1" connect="1" arrows="1" fold="1" page="1" pageScale="1" pageWidth="850" pageHeight="1100" math="0" shadow="0">
      <root>
        <mxCell id="0" />
        <mxCell id="1" parent="0" />
        <mxCell id="cdMkl12K5M9LIQt8GiXC-1" value="array: numList = [42, 6, 3, 7, 4, 2]" style="rounded=0;whiteSpace=wrap;html=1;fillColor=#dae8fc;strokeColor=#6c8ebf;" vertex="1" parent="1">
          <mxGeometry x="80" y="40" width="160" height="60" as="geometry" />
        </mxCell>
        <mxCell id="cdMkl12K5M9LIQt8GiXC-2" value="number: sum = 0" style="rounded=0;whiteSpace=wrap;html=1;fillColor=#dae8fc;strokeColor=#6c8ebf;" vertex="1" parent="1">
          <mxGeometry x="560" y="40" width="160" height="60" as="geometry" />
        </mxCell>
        <mxCell id="cdMkl12K5M9LIQt8GiXC-3" value="from 0 to numList.length" style="rhombus;whiteSpace=wrap;html=1;fillColor=#dae8fc;strokeColor=#6c8ebf;" vertex="1" parent="1">
          <mxGeometry x="580" y="140" width="120" height="120" as="geometry" />
        </mxCell>
        <mxCell id="cdMkl12K5M9LIQt8GiXC-4" value="sum += numList[i]" style="rounded=0;whiteSpace=wrap;html=1;fillColor=#dae8fc;strokeColor=#6c8ebf;" vertex="1" parent="1">
          <mxGeometry x="560" y="310" width="160" height="60" as="geometry" />
        </mxCell>
        <mxCell id="cdMkl12K5M9LIQt8GiXC-5" value="onClick" style="rounded=0;whiteSpace=wrap;html=1;fillColor=#d5e8d4;strokeColor=#82b366;" vertex="1" parent="1">
          <mxGeometry x="320" y="40" width="160" height="60" as="geometry" />
        </mxCell>
        <mxCell id="cdMkl12K5M9LIQt8GiXC-6" value="render sum" style="rounded=0;whiteSpace=wrap;html=1;fillColor=#d5e8d4;strokeColor=#82b366;" vertex="1" parent="1">
          <mxGeometry x="680" y="430" width="160" height="60" as="geometry" />
        </mxCell>
        <mxCell id="cdMkl12K5M9LIQt8GiXC-10" value="" style="endArrow=classic;html=1;entryX=0;entryY=0.5;entryDx=0;entryDy=0;" edge="1" parent="1" source="cdMkl12K5M9LIQt8GiXC-1" target="cdMkl12K5M9LIQt8GiXC-5">
          <mxGeometry width="50" height="50" relative="1" as="geometry">
            <mxPoint x="160" y="150" as="sourcePoint" />
            <mxPoint x="210" y="150" as="targetPoint" />
          </mxGeometry>
        </mxCell>
        <mxCell id="cdMkl12K5M9LIQt8GiXC-11" value="" style="endArrow=classic;html=1;exitX=1;exitY=0.5;exitDx=0;exitDy=0;entryX=0;entryY=0.5;entryDx=0;entryDy=0;" edge="1" parent="1" source="cdMkl12K5M9LIQt8GiXC-5" target="cdMkl12K5M9LIQt8GiXC-2">
          <mxGeometry width="50" height="50" relative="1" as="geometry">
            <mxPoint x="240" y="220" as="sourcePoint" />
            <mxPoint x="290" y="170" as="targetPoint" />
          </mxGeometry>
        </mxCell>
        <mxCell id="cdMkl12K5M9LIQt8GiXC-12" value="" style="endArrow=classic;html=1;entryX=0.5;entryY=0;entryDx=0;entryDy=0;" edge="1" parent="1" source="cdMkl12K5M9LIQt8GiXC-2" target="cdMkl12K5M9LIQt8GiXC-3">
          <mxGeometry width="50" height="50" relative="1" as="geometry">
            <mxPoint x="480" y="250" as="sourcePoint" />
            <mxPoint x="550.7106781186548" y="200" as="targetPoint" />
          </mxGeometry>
        </mxCell>
        <mxCell id="cdMkl12K5M9LIQt8GiXC-13" value="" style="endArrow=classic;html=1;exitX=0.5;exitY=1;exitDx=0;exitDy=0;" edge="1" parent="1" source="cdMkl12K5M9LIQt8GiXC-3" target="cdMkl12K5M9LIQt8GiXC-4">
          <mxGeometry width="50" height="50" relative="1" as="geometry">
            <mxPoint x="680" y="230" as="sourcePoint" />
            <mxPoint x="730" y="180" as="targetPoint" />
          </mxGeometry>
        </mxCell>
        <mxCell id="cdMkl12K5M9LIQt8GiXC-14" value="" style="endArrow=classic;html=1;exitX=0.563;exitY=1;exitDx=0;exitDy=0;entryX=0;entryY=0.5;entryDx=0;entryDy=0;exitPerimeter=0;" edge="1" parent="1" source="cdMkl12K5M9LIQt8GiXC-4" target="cdMkl12K5M9LIQt8GiXC-3">
          <mxGeometry width="50" height="50" relative="1" as="geometry">
            <mxPoint x="480" y="320" as="sourcePoint" />
            <mxPoint x="530" y="270" as="targetPoint" />
            <Array as="points">
              <mxPoint x="650" y="400" />
              <mxPoint x="480" y="400" />
              <mxPoint x="480" y="200" />
            </Array>
          </mxGeometry>
        </mxCell>
        <mxCell id="cdMkl12K5M9LIQt8GiXC-15" value="" style="endArrow=classic;html=1;exitX=1;exitY=0.5;exitDx=0;exitDy=0;" edge="1" parent="1" source="cdMkl12K5M9LIQt8GiXC-4" target="cdMkl12K5M9LIQt8GiXC-6">
          <mxGeometry width="50" height="50" relative="1" as="geometry">
            <mxPoint x="500" y="280" as="sourcePoint" />
            <mxPoint x="550" y="230" as="targetPoint" />
            <Array as="points">
              <mxPoint x="760" y="340" />
            </Array>
          </mxGeometry>
        </mxCell>
      </root>
    </mxGraphModel>
  </diagram>
</mxfile>
